<svg width="567" height="377" xmlns="http://www.w3.org/2000/svg">
    <g fill="none" fill-rule="evenodd">
        <path d="M504.078 372.878h-26.35c6.678-1.951 12.883-4.796 18.17-8.863 4.712-3.622 8.897-9.269 8.383-14.927 3.669-6.784 5.843-14.798 6.673-22.89a4.17 4.17 0 0 0 1.613-.471c1.327-.715 2.126-2.498 1.4-3.818-.52-.943-1.59-1.386-2.644-1.69.047-2.158 0-4.3-.138-6.408 1.103.871 2.284 1.658 3.586 2.18.976.392 2.028.627 3.074.627a6.5 6.5 0 0 0 1.333-.135c.638-.135 1.27-.381 1.736-.835.467-.453.74-1.141.577-1.77-.188-.728-.873-1.202-1.54-1.54a11.062 11.062 0 0 0-4.988-1.17c-1.338 0-2.675.236-3.926.707a312.572 312.572 0 0 0 6.72-6.499c.983 1.09 2.279 1.88 3.656 2.394.829.308 1.705.525 2.585.525.124 0 .25-.005.373-.013 1.006-.074 2.013-.478 2.681-1.233.382-.432.646-1.058.405-1.583-.268-.585-1.002-.755-1.639-.85-1.269-.188-2.574-.354-3.859-.354-1.277 0-2.536.163-3.716.63a314.713 314.713 0 0 0 6.302-6.49c.964 1.005 2.197 1.742 3.506 2.23.826.31 1.7.526 2.58.526.126 0 .252-.004.378-.014 1.007-.072 2.014-.476 2.68-1.233.384-.431.647-1.058.406-1.582-.267-.585-1.004-.756-1.64-.85-1.268-.189-2.573-.353-3.858-.353-1.13 0-2.244.127-3.302.478.732-.782 1.46-1.567 2.185-2.357a21.504 21.504 0 0 0 7.082-3.905c.718-.596 1.416-1.267 1.77-2.13.352-.863.277-1.96-.403-2.597-.398-.372-.904-.52-1.44-.52-.71 0-1.473.261-2.103.615-2.686 1.505-4.544 4.372-4.885 7.431a305.888 305.888 0 0 1-3.166 3.414 25.677 25.677 0 0 0 1.606-4.551c.196-.79.359-1.602.29-2.414-.066-.81-.386-1.63-1.01-2.152-.127-.106-.27-.2-.432-.227a.609.609 0 0 0-.1-.008c-.133 0-.266.039-.392.089-1.034.397-1.753 1.4-2.036 2.472-.284 1.071-.188 2.209.017 3.298.26 1.391.763 2.844 1.819 3.746a316.868 316.868 0 0 1-6.284 6.478l-.105.104c.737-2.862.927-4.8.886-7.797-.007-.505-.037-1.019-.228-1.485-.188-.467-.564-.884-1.054-1.004a1.297 1.297 0 0 0-.311-.036c-.302 0-.607.096-.877.238-1.1.574-1.69 1.798-2.031 2.988-.217.762-.366 1.56-.26 2.344.211 1.553 1.362 2.79 2.455 3.913.379.387.776.788 1.274.984a313.09 313.09 0 0 1-6.62 6.425 69.618 69.618 0 0 0-.251-2.064c.189-1.364.254-2.733.068-4.096-.137-.999-.432-2.018-1.12-2.754a2.882 2.882 0 0 0-.365-.323 67.84 67.84 0 0 0-.218-.805c-1.187-4.238-3.07-8.293-5.48-12.17a89.267 89.267 0 0 0 4.888-15.987c1.685-8.213 1.394-18.413-5.69-22.898-2.139-1.354-4.646-1.954-7.185-1.954-2 0-4.02.372-5.9 1.04-4.265 1.514-7.911 4.387-11.216 7.48a90.204 90.204 0 0 0-3.838 3.817 299.812 299.812 0 0 0-8.497-5.933c1.384-.367 2.704-1.05 3.674-2.1.441-.478.815-1.046.933-1.687.118-.64-.057-1.358-.556-1.777-.381-.322-.88-.425-1.388-.425a5.28 5.28 0 0 0-.76.063c-2.307.347-4.478 1.468-6.138 3.104-.315-.207-.626-.41-.94-.618.362-1.865.708-3.733 1.037-5.605.075-.428.15-.859.223-1.288.58.13 1.173.19 1.767.19.875 0 1.752-.13 2.598-.354.976-.26 1.931-.655 2.708-1.297.778-.642 1.365-1.554 1.473-2.557.06-.574-.085-1.238-.587-1.525a1.094 1.094 0 0 0-.555-.142c-.427 0-.88.198-1.273.398-2.279 1.158-4.627 2.478-6.015 4.609.504-2.973.963-5.952 1.381-8.938.51.097 1.03.143 1.552.143a10.1 10.1 0 0 0 2.596-.354c.976-.259 1.931-.653 2.71-1.295.777-.642 1.365-1.554 1.47-2.557.062-.574-.084-1.24-.584-1.526-.176-.1-.364-.141-.558-.141-.426 0-.878.196-1.271.397-2.148 1.092-4.356 2.327-5.766 4.249.145-1.063.284-2.127.418-3.19a21.567 21.567 0 0 0 3.512-7.282c.24-.9.42-1.852.208-2.76-.21-.91-.908-1.76-1.832-1.886a1.869 1.869 0 0 0-.247-.017c-1.144 0-2.08 1.08-2.587 2.147-1.319 2.782-1.172 6.196.32 8.887-.19 1.54-.39 3.079-.604 4.615a25.68 25.68 0 0 0-1.326-4.64c-.296-.757-.636-1.513-1.16-2.137-.525-.623-1.259-1.104-2.07-1.168a1.267 1.267 0 0 0-.128-.006.795.795 0 0 0-.355.071c-.151.072-.261.209-.356.35-.613.923-.617 2.157-.229 3.194.39 1.038 1.127 1.91 1.925 2.68 1.017.983 2.267 1.876 3.652 2.001-.415 2.98-.873 5.954-1.373 8.92l-.025.144c-1.056-2.759-2.024-4.447-3.791-6.869-.298-.406-.623-.809-1.046-1.08a1.837 1.837 0 0 0-.961-.294c-.165 0-.328.026-.48.087-.382.15-.667.488-.855.853-.562 1.103-.334 2.444.077 3.614.262.746.603 1.483 1.145 2.061 1.072 1.143 2.724 1.485 4.267 1.767.348.064.706.127 1.059.127.186 0 .37-.017.55-.061a309.935 309.935 0 0 1-1.277 7.032 764.561 764.561 0 0 0-3.695-2.401 13.57 13.57 0 0 0-.422-.477c-.69-.734-1.521-1.395-2.507-1.596a2.45 2.45 0 0 0-.364-.047c-2.844-1.826-5.694-3.649-8.527-5.479-1.056-6.186-3.34-13.03-9.203-15.557-1.51-.649-3.15-.942-4.8-.942-1.42 0-2.848.217-4.207.61-1.088.314-2.13.734-3.122 1.243-6.574-4.962-12.723-10.226-18.136-16.031-11.561-12.4-25.393-41.04-36.511-53.688-21.617-24.592-47.283-40.742-85.145-44.77a88.628 88.628 0 0 0-5.269-.402v-7.318a4.482 4.482 0 0 0-4.481-4.483h-35.207a4.484 4.484 0 0 0-4.483 4.483v17.661c-13.576 7.403-24.808 17.92-33.7 28.79h-50.528a6.632 6.632 0 0 0-6.632 6.633v32.294a6.632 6.632 0 0 0 6.632 6.632h27.147c-4.085 16.689-6.344 33.848-17.324 48.323-7.698 10.151-19.176 18.213-27.632 27.987-15.048 17.39-19.595 40.124-12.059 60.292 6.25 16.735 20.72 31.435 39.536 40.681H52.291c-16.074-6.57-29.814-16.645-38.474-29.81-14.274-21.7-16.924-55.312-10.539-79.46 5.36-20.275 20.676-37.82 38.145-52.674 35.291-30.014 80.766-51.785 110.592-85.638 16.58-18.812 27.61-40.62 43.55-59.81C226.56 28.173 277.885 1.696 332.457.075 334.1.025 335.746 0 337.39 0c52.976 0 106.197 25.168 128.189 65.16 19.506 35.467 14.421 78.455 38.437 111.962 11.039 15.402 27.497 27.637 39.621 42.465 21.575 26.386 28.094 60.88 17.291 91.483-8.982 25.44-29.79 47.784-56.849 61.808M386.613 85.075a6.63 6.63 0 0 0-6.632 6.63V124a6.632 6.632 0 0 0 6.632 6.632h54.732a6.632 6.632 0 0 0 6.632-6.632V91.706a6.63 6.63 0 0 0-6.632-6.631h-54.732M248.742 42.497c-3.812 0-6.901 3.09-6.901 6.901v31.757c0 3.81 3.089 6.9 6.9 6.9h38.44l14.564 10.337V88.055h1.192c3.812 0 6.901-3.09 6.901-6.9V49.398c0-3.81-3.089-6.9-6.9-6.9h-54.196" fill="#F0F7FA"/>
        <path d="M405.147 372.878h-7.367a.698.698 0 0 0 .697-.698v-.63c2.134.466 4.373.91 6.67 1.328m-243.296 0h-2.19c-18.817-9.246-33.286-23.946-39.536-40.68-7.536-20.169-2.989-42.903 12.06-60.293 8.455-9.774 19.933-17.836 27.63-27.987 10.98-14.475 13.24-31.634 17.325-48.323h27.586a6.632 6.632 0 0 0 6.633-6.632v-32.294a6.632 6.632 0 0 0-6.633-6.633h-4.204c8.89-10.87 20.123-21.387 33.7-28.79v2.97a4.483 4.483 0 0 0 4.482 4.483h24.972l9.46 6.715V128.7h.775a4.482 4.482 0 0 0 4.481-4.483v-13.313c1.733.08 3.493.213 5.269.402 37.862 4.028 63.528 20.178 85.145 44.77 11.118 12.647 24.95 41.288 36.51 53.688 5.414 5.805 11.563 11.069 18.137 16.031-4.308 2.213-7.69 6.117-9.89 10.412-2.707 5.285-3.866 11.177-4.95 16.987-7.228 38.81-12.457 78.276-25.337 115.606h-61.338c2.138-.533 4.117-1.584 5.51-3.267 2.267-2.741 2.578-6.731 1.512-10.125-1.065-3.396-3.328-6.286-5.793-8.85-6.156-6.398-11.758-10.783-19.821-14.5-.308-.14-.619-.285-.93-.43l-4.556-46.283c1.842-13.256 2.211-26.832-.542-39.067-6.28 1.072-10.532 6.74-14.211 11.944a87.016 87.016 0 0 0-4.428 6.962c-.515-.414-1.143-.671-1.773-.671-.26 0-.52.044-.774.139-1.135.423-1.745 1.628-2.221 2.74-1.102 2.57-2.071 5.347-1.844 8.1a324.613 324.613 0 0 0-5.563-8.357c.37-.16.7-.44 1-.717 1.103-1.017 2.137-2.131 2.891-3.426.754-1.296 1.22-2.791 1.129-4.288-.04-.65-.193-1.312-.573-1.84-.35-.485-.919-.839-1.51-.839-.052 0-.105.003-.157.009-.746.08-1.316.69-1.746 1.3-1.77 2.503-2.408 5.762-1.76 8.752a313.411 313.411 0 0 0-4.673-6.545l-.775-1.053c1.22-.814 2.191-1.978 2.9-3.266.486-.883.863-1.847.939-2.851.073-1.007-.179-2.063-.829-2.834-.31-.367-.763-.672-1.226-.672a1.03 1.03 0 0 0-.28.04c-.618.18-.895.882-1.08 1.498-.741 2.447-1.411 5.056-.834 7.532-1.8-2.42-3.633-4.813-5.5-7.18 1.135-.805 2.044-1.917 2.72-3.14.484-.885.862-1.848.937-2.854.074-1.005-.178-2.061-.829-2.831-.309-.367-.763-.673-1.225-.673a1.03 1.03 0 0 0-.282.04c-.617.18-.894.882-1.08 1.499-.697 2.305-1.333 4.755-.92 7.103a287.808 287.808 0 0 0-2.013-2.506 21.532 21.532 0 0 0-2.83-7.577c-.486-.796-1.048-1.585-1.85-2.062a2.775 2.775 0 0 0-1.384-.385c-.451 0-.892.125-1.245.406-.99.789-.872 2.336-.422 3.518 1.097 2.879 3.662 5.134 6.639 5.918.98 1.202 1.952 2.412 2.916 3.628a25.803 25.803 0 0 0-4.269-2.25c-.753-.311-1.532-.59-2.345-.641a3.768 3.768 0 0 0-.25-.009c-.735 0-1.481.208-2.027.695-.123.109-.237.237-.287.392-.051.16-.03.335.007.501.242 1.08 1.13 1.937 2.15 2.375.857.366 1.798.474 2.736.474.177 0 .353-.004.529-.01 1.414-.055 2.923-.34 3.97-1.254 1.865 2.36 3.697 4.749 5.492 7.163l.09.12c-2.725-1.148-4.614-1.619-7.587-2.017a6.243 6.243 0 0 0-.822-.066c-.228 0-.456.021-.68.075-.49.12-.956.43-1.147.897-.154.38-.109.818.027 1.206.408 1.17 1.532 1.934 2.661 2.445.72.327 1.489.59 2.28.6h.043c1.55 0 2.926-.949 4.187-1.858.437-.319.89-.653 1.16-1.12a315.798 315.798 0 0 1 5.994 8.36c-2.177-.83-4.41-1.565-6.727-1.59h-.09c-.98 0-1.993.15-2.797.708-.827.572-1.354 1.67-1.014 2.618.266.738.975 1.227 1.698 1.53a6.845 6.845 0 0 0 2.633.506c.828 0 1.658-.134 2.445-.384 1.635-.517 3.096-1.503 4.33-2.696.909 1.321 1.809 2.65 2.699 3.984a341.059 341.059 0 0 1 2.734 4.175h-.899a41.505 41.505 0 0 0-2.82-.816c-1.214-.305-2.503-.544-3.755-.544-1.221 0-2.41.227-3.462.842a3.485 3.485 0 0 0-.69.518H155.092l6.758 97.111m133.733-172.413c-1.284 4.142-3.083 8.118-4.996 12.016-.207.427-.422.87-.42 1.343.004.923.8 1.627 1.544 2.17 7.03 5.14 15.748 7.811 24.446 7.811h.247c5.24-.008 10.465-.986 15.314-3.004l-.018-.036a.097.097 0 0 0 .018-.007l-.539-1.13.68-.217c6.686-2.168 13.569-5.1 17.697-10.789 5.377-7.413 8.934-26.92 10.331-35.972l-47.317-8.498c-2 2.232-3.276 4.913-4.123 7.785l-4.096-8.592c-1.658 3.85-3.062 7.613-4.094 11.393-5.661.674-10.09 6.605-10.09 13.822 0 5.053 2.171 9.476 5.416 11.905m102.14 168.334h-2.773c.15-.098.3-.198.45-.298a78.698 78.698 0 0 0 3.647-.563 165.6 165.6 0 0 0-1.324.86m-83.76 0h-7.89l-.178-1.811c.79.166 1.579.341 2.366.525 1.894.444 3.79.942 5.703 1.287m190.316-19.711c-.072-.8-.24-1.6-.51-2.394-1.396-4.075-5.343-6.869-9.507-7.97-2.035-.535-4.126-.729-6.23-.729-1.525 0-3.056.102-4.58.248-.088-.014-.176-.028-.264-.04a13.28 13.28 0 0 0-1.823-.131c-.777 0-1.551.076-2.303.246l.254-.185c2.117-1.549 4.186-3.162 6.262-4.76a528.98 528.98 0 0 0 5.503-4.287c.234 1.23.894 2.397 1.67 3.402 2.242 2.9 5.776 4.935 9.403 4.935a9.39 9.39 0 0 0 1.279-.087c.784-.107 1.575-.319 2.211-.79.637-.47 1.095-1.238 1.034-2.026-.094-1.153-1.176-1.937-2.154-2.554-2.018-1.274-4.054-2.558-6.3-3.36-1.35-.484-2.793-.782-4.221-.782-.496 0-.99.036-1.48.113a314.239 314.239 0 0 0 9.263-7.72l.025.145c1.49 2.423 3.674 4.5 6.36 5.437.734.256 1.526.42 2.303.42.16 0 .319-.008.478-.022-.83 8.093-3.004 16.107-6.673 22.89m-51.664-5.046a188.287 188.287 0 0 0 6.358-4.563c4.985-3.74 9.947-7.57 14.696-11.623-.423 3.892 1.012 7.955 3.8 10.707-.233.164-.469.329-.704.49a192.004 192.004 0 0 0-24.15 4.989m26.002-6.3c1.2-2.11 2.131-4.392 2.422-6.795.323-2.67-.209-5.512-1.835-7.654a3.478 3.478 0 0 0-.173-.212 130.21 130.21 0 0 0 6.22-6.182 7.484 7.484 0 0 0-.056 1.138c.1 4.08 2.046 8.076 5.182 10.682a486.646 486.646 0 0 1-9.875 7.627c-.623.469-1.251.936-1.885 1.397m12.776-9.832c.683-3.551 1.317-7.261.228-10.701-.316-1-.794-1.983-1.588-2.669-.536-.463-1.238-.766-1.938-.795a96.085 96.085 0 0 0 4.937-6.178 89.456 89.456 0 0 0 10.543-18.82c2.409 3.878 4.292 7.933 5.479 12.171.073.268.147.535.218.805-.434-.317-.968-.512-1.489-.512a1.86 1.86 0 0 0-.884.214c-.692.37-1.072 1.144-1.265 1.903-.426 1.677-.139 3.487.617 5.041.751 1.543 1.94 2.844 3.301 3.89a313.43 313.43 0 0 1-7.637 6.877c.277-1.358.486-2.73.623-4.11.246-2.46.197-5.165-1.35-7.095-.377-.471-.872-.897-1.47-.98a1.587 1.587 0 0 0-.214-.016c-.71 0-1.372.478-1.83 1.037-1.262 1.54-1.472 3.748-.945 5.666.528 1.918 1.704 3.59 2.99 5.107.377.443.782.889 1.264 1.2a310.688 310.688 0 0 1-7.355 6.163 350.84 350.84 0 0 1-2.235 1.802m19.928-7.69c-.131-.04-.262-.074-.393-.109-1.877-.496-3.844-.915-5.771-.915-.848 0-1.688.082-2.51.273a327.845 327.845 0 0 0 7.455-6.721c.212.341.538.627.858.884l.223.179a73.58 73.58 0 0 1 .138 6.409m-77.178-5.678c3.197-7.595 5.875-15.394 7.896-23.318 1.84 1.624 4.128 2.745 6.551 3.137-.17.482-.346.964-.527 1.445a783.155 783.155 0 0 1-13.92 18.736m76.022-2.855c.205-.925.393-1.857.524-2.791.093.682.176 1.37.25 2.064-.257.243-.515.484-.774.727M449.75 293.24l.099-.296c.828-2.488 1.582-5.002 2.348-7.507a517.32 517.32 0 0 0 2.004-6.68c.904.867 2.117 1.436 3.333 1.805.334.1.671.19 1.014.265-1.362 1.96-2.712 3.926-4.067 5.884-1.37 1.98-2.765 3.97-4.18 5.962-.192.182-.376.37-.551.567m-.698-.211c-.244-2.415-.806-4.815-1.96-6.942-.767-1.413-1.82-2.7-3.09-3.68.44-2.32.82-4.65 1.138-6.984 2.31 1.968 5.248 3.21 8.275 3.44a491.237 491.237 0 0 1-3.636 11.937 122.12 122.12 0 0 1-.727 2.229m4.723-15.413c-1.499-3.29-3.131-6.683-6.01-8.857-.554-.419-1.163-.79-1.813-1.022.674-9.018.362-18.079-1.13-27.066l-.037-.231c2.833 1.83 5.683 3.653 8.527 5.479a2.184 2.184 0 0 0-.164-.006c-.841 0-1.693.389-2.064 1.131-.35.703-.213 1.554.07 2.286.624 1.611 1.906 2.923 3.422 3.75 1.506.825 3.23 1.197 4.944 1.262a327.606 327.606 0 0 1-2.245 10.029 41.127 41.127 0 0 0-1.872-3.712c-1.224-2.146-2.832-4.325-5.209-5.004a3.347 3.347 0 0 0-.908-.14c-.3 0-.592.054-.858.192-.707.367-1.02 1.223-1.075 2.018-.138 1.984.968 3.906 2.51 5.164 1.54 1.259 3.467 1.943 5.395 2.433.515.132 1.051.25 1.58.25.048 0 .097 0 .144-.002a312.12 312.12 0 0 1-3.207 12.046m.937-.631a311.999 311.999 0 0 0 3.084-11.659l.104.102c1.698.724 3.547 1.159 5.384 1.159.997 0 1.989-.128 2.95-.406 1.448-.419 2.872-1.25 3.54-2.603.667-1.35.288-3.267-1.07-3.923a2.671 2.671 0 0 0-1.179-.253c-.779 0-1.592.266-2.336.544-2.618.983-5.293 2.203-7.125 4.272a310.743 310.743 0 0 0 2.187-9.796c.372.155.802.199 1.21.224.467.029.933.047 1.401.047 1.035 0 2.068-.086 3.072-.329.069-.016.136-.033.204-.051a299.812 299.812 0 0 1 8.497 5.933c-3.937 4.155-7.506 8.651-10.905 13.286-1.346.128-2.681.33-3.983.695-1.86.524-3.663 1.416-5.035 2.758m4.976-23.465c-.823-1.948-1.734-3.877-3.083-5.481 1.235.798 2.466 1.597 3.695 2.4-.2 1.028-.403 2.055-.612 3.081m.82-.35c.154-.765.306-1.531.455-2.297l.94.618c-.52.511-.99 1.074-1.396 1.678" fill="#E1EFF5"/>
        <path d="M131.05 355.255c-1.296 1.597-4.181 2.994-8.133 3.206l1.31-10.164c3.23.394 6.579 1.419 7.409 3.79.404 1.147.211 2.186-.585 3.168zm5.66-4.947c-1.665-4.75-6.598-6.57-11.01-7.24-9.651 15.093-21.71 18.103-28.31 18.5l1.92 11.31h21.75l1.162-9.029c5.513-.099 10.393-1.986 13.006-5.211 1.983-2.444 2.508-5.404 1.483-8.33z" fill="#23A5C4"/>
        <path d="M125.7 343.069c-.262-.04-.528-.092-.784-.123l1.315-10.202a1.008 1.008 0 0 0-1-1.135h-31.6c-.694 0-1.222.626-1.107 1.312l4.865 28.647c6.601-.397 18.66-3.407 28.311-18.5" fill="#20AFC6"/>
        <path d="M111.2 327.373c-3.143-1.67-6.14-7.688-7.378-10.472-1.237-2.784-1.597-6.117-.226-8.837 1.16-2.298 3.38-3.88 4.762-6.05a9.819 9.819 0 0 0 1.206-7.647c-.94-3.621-3.912-6.507-4.592-10.186-.8-4.315 1.71-8.464 2.808-12.712a20.282 20.282 0 0 0-.564-11.914c3.065 1.819 4.898 5.11 6.589 8.247 1.544 2.864 3.135 5.926 2.91 9.174-.14 2.04-.992 3.954-1.708 5.87-1.297 3.471-2.184 7.277-1.26 10.864 1.4 5.423 6.742 9.662 6.531 15.258-.124 3.316-2.274 6.258-4.863 8.333-1.688 1.35-3.638 2.477-4.822 4.286-1.183 1.808-1.225 4.637.606 5.786" fill="#FFFFFE"/>
        <path d="M304.352 163.345c-2.515 5.836-4.442 11.476-5.378 17.274-.936 5.796-1.258 11.706-2.7 17.4-1.275 5.03-3.4 9.802-5.686 14.462-.207.427-.422.87-.42 1.343.004.923.8 1.627 1.544 2.17 11.331 8.286 27.047 10.157 40.007 4.764l-27.367-57.413" fill="#413643"/>
        <path d="M312.505 188.56c0 7.67-5 13.887-11.17 13.887-6.166 0-11.167-6.217-11.167-13.887 0-7.67 5.001-13.887 11.168-13.887 6.168 0 11.17 6.218 11.17 13.887" fill="#20AFC6"/>
        <path d="M317.759 190.525c0 7.67-5.002 13.888-11.168 13.888-6.169 0-11.17-6.218-11.17-13.888 0-7.668 5.001-13.885 11.17-13.885 6.166 0 11.168 6.217 11.168 13.885" fill="#2098AB"/>
        <path d="m331.72 220.801-23.306-48.89c-2.578 8.591-5.158 17.181-7.593 25.813-.81 2.873-1.609 5.769-1.876 8.742a24.89 24.89 0 0 0 .529 7.78c.568 2.479 1.555 4.926 3.292 6.782.314.333.676.615 1.025.91 9.099 2.762 19.135 2.523 27.928-1.137" fill="#352D37"/>
        <path d="M326.821 219.122c1.053 5.933 1.926 12.67-1.759 17.44-.808 1.047-1.86 2.067-1.918 3.388-.075 1.73 1.578 3.004 3.128 3.778 5.99 2.997 13.235 3.372 19.504 1.01.518-.197 1.054-.426 1.402-.857.79-.975.283-2.408-.2-3.565-4.45-10.618-4.322-23.062.342-33.588" fill="#DE9B78"/>
        <path d="M326.293 217.392c1.028 4.168 1.706 8.18 1.25 12.45-.014.146-.024.311.075.42.136.143.372.086.557.02 1.367-.493 2.752-.998 3.954-1.817 2.023-1.38 4.408-3.919 5.45-6.136 1.44-3.065 2.145-6.064 1.885-9.441" fill="#CB8465"/>
        <path d="M312.57 164.152c-4.23 4.724-5.218 11.45-5.775 17.768-.49 5.566-.79 11.193-.002 16.723.79 5.532 2.732 11.007 6.31 15.3a23.47 23.47 0 0 0 5.267 4.666c1.362.882 2.836 1.628 4.422 1.97 3.017.647 6.133-.218 9.068-1.168 6.686-2.168 13.569-5.1 17.697-10.789 5.377-7.413 8.934-26.92 10.331-35.972l-47.317-8.498" fill="#DE9B78"/>
        <path d="M304.142 169.905a45.37 45.37 0 0 0 22.168 10.388c4.727.779 9.544.8 14.335.698 1.792-.04 3.603-.096 5.345-.521 2.417-.59 4.716-1.958 6.038-4.065 1.32-2.109 1.497-4.997.096-7.053" fill="#CB8465"/>
        <path d="M358.107 145.187c-11.92-5.763-29.179-4.57-37.853.394-8.672 4.964-12.267 9.408-16.794 19.752-.272.618-1.836 4.423-1.6 5.054.236.628.539.977 1.162 1.214 10.716 4.09 20.133 4.826 31.587 5.393 3.815.188 7.684.196 11.395-.704 5.252 17.593 2.515 30.204-6.23 46.348 5.693 2.401 27.83 3.783 38.367-4.378 2.717-2.105 5.198-4.595 6.85-7.609 4.187-7.647 2.39-17.074.112-25.49-1.695-6.263-3.615-12.52-6.693-18.235-4.727-8.776-11.152-17.79-20.303-21.739" fill="#413643"/>
        <path d="M316.353 202.918c.87 2.685 1.87 5.164 4.248 6.687 2.358 1.51 5.51 1.333 8.044.145 2.535-1.188 4.946-4.164 6.722-6.33-6.155.576-12.925.57-19.014-.502" fill="#FFFFFE"/>
        <path d="M365.778 217.058c-.723-.574-1.376-1.275-1.723-2.13-.674-1.664-.088-3.539.43-5.259.875-2.91 1.548-5.926 1.442-8.964-.107-3.04-1.054-6.128-3.09-8.389-2.946-3.27-7.577-4.306-11.896-5.17-.905-.183-1.812-.364-2.718-.545 1.613 12.612-1.463 23.23-8.401 36.037 5.693 2.401 27.83 3.783 38.366-4.378.386-.298.752-.623 1.126-.936-.647.362-1.293.732-1.99 1.003-3.776 1.472-8.37 1.25-11.546-1.27" fill="#352D37"/>
        <path d="M326.946 187.05c-2.967-1.575-5.245-.065-5.272-.047l-.573-.841c.114-.077 2.816-1.87 6.323-.01l-.478.897M348.266 186.766l-2.662-.046v-1.02h2.523l.139 1.066" fill="#141314"/>
        <path fill="#CB8465" d="m323.515 188.886-3.224 9.879 5.075.41"/>
        <path d="M333.584 181.028c.205-.126.423-.234.64-.335.132-.062.264-.12.398-.176l-.147.062a12.467 12.467 0 0 1 3.152-.855l-.163.022a12.204 12.204 0 0 1 3.219-.002l-.162-.022a12.422 12.422 0 0 1 3.159.872l-.146-.061c.887.376 1.728.846 2.523 1.392a.614.614 0 0 0 .834-.22.619.619 0 0 0 .063-.47.678.678 0 0 0-.281-.365 14.29 14.29 0 0 0-4.077-1.954 12.639 12.639 0 0 0-3.664-.499 13.094 13.094 0 0 0-3.014.394c-.725.183-1.431.435-2.114.737a7.067 7.067 0 0 0-.826.42l-.01.006a.639.639 0 0 0-.28.365.624.624 0 0 0 .06.47c.084.13.21.247.365.282a.63.63 0 0 0 .471-.063M317.154 181.102a6.126 6.126 0 0 0-.57-.448l-.356-.244.131.086a11.7 11.7 0 0 0-.928-.551c-.392-.21-.796-.4-1.208-.568a12.663 12.663 0 0 0-.807-.294l.155.051a12.01 12.01 0 0 0-3.163-.587l.163.008a12.27 12.27 0 0 0-3.265.281l.155-.035c-.94.21.31.846-1.414.396-.16-.043 1.124-1.664 2.63-1.813a12.639 12.639 0 0 1 3.693.177 12.908 12.908 0 0 1 4.837 2.046c.254.174.507.356.736.562l.01.008a.633.633 0 0 1 .208.411.627.627 0 0 1-.146.452.617.617 0 0 1-.41.208.625.625 0 0 1-.45-.146M333.968 187.828l.059-.081-.054.07.25-.297c.138-.15.284-.295.435-.43l.323-.27-.07.055a5.31 5.31 0 0 1 .844-.536l.277-.127-.082.033c.265-.11.54-.197.823-.254l.252-.042-.092.012a4.28 4.28 0 0 1 .824-.025l.247.028-.091-.014c.31.042.614.119.908.223l.274.107-.084-.035c.402.169.782.386 1.138.634l.336.247-.07-.055.277.225.247.101.246-.101.102-.247-.102-.246a8.131 8.131 0 0 0-1.292-.902 5.723 5.723 0 0 0-1.217-.502 4.404 4.404 0 0 0-3.065.242c-.247.11-.482.24-.707.387a6.208 6.208 0 0 0-1.073.893l-.282.319-.178.228-.004.007-.035.269.16.209.268.033.208-.158M308.67 186.915l.06-.08-.055.07.251-.297a6.05 6.05 0 0 1 .435-.432l.321-.268-.07.055c.265-.205.547-.385.845-.536l.278-.13-.082.036c.265-.111.54-.199.822-.255l.253-.041-.092.012c.272-.037.548-.046.823-.025l.248.027-.092-.013c.31.042.613.118.908.223l.273.106-.082-.034c.401.169.78.386 1.138.634l.336.246-.071-.054.278.224.247.102.245-.102.103-.246-.103-.247a8.038 8.038 0 0 0-1.291-.902 5.663 5.663 0 0 0-1.219-.503 4.646 4.646 0 0 0-1.132-.167 4.47 4.47 0 0 0-1.028.103 4.72 4.72 0 0 0-.905.308c-.245.108-.482.24-.706.387a6.344 6.344 0 0 0-1.073.891l-.282.32-.177.23-.006.006-.035.267.16.208.268.036.209-.159" fill="#352D37"/>
        <path d="M341.667 201.205a4.364 4.364 0 1 1 0-8.729 4.364 4.364 0 0 1 0 8.729M310.267 198.822a3.677 3.677 0 1 1 0-7.354 3.677 3.677 0 0 1 0 7.354" fill="#E28967"/>
        <path d="M312.099 178.434c-4.703 0-8.532 3.828-8.532 8.533 0 4.703 3.829 8.532 8.532 8.532 4.704 0 8.533-3.829 8.533-8.532 0-4.705-3.829-8.533-8.533-8.533zm0 18.176c-5.319 0-9.645-4.326-9.645-9.643 0-5.32 4.326-9.645 9.645-9.645 5.318 0 9.644 4.325 9.644 9.645 0 5.317-4.326 9.643-9.644 9.643zM336.361 178.434c-4.704 0-8.533 3.828-8.533 8.533 0 4.703 3.829 8.532 8.533 8.532 4.703 0 8.532-3.829 8.532-8.532 0-4.705-3.829-8.533-8.532-8.533zm0 18.176c-5.32 0-9.644-4.326-9.644-9.643 0-5.32 4.324-9.645 9.644-9.645 5.317 0 9.643 4.325 9.643 9.645 0 5.317-4.326 9.643-9.643 9.643zM329.75 214.778c.138 1.444-1.244 2.757-3.09 2.936-1.844.178-3.454-.848-3.592-2.291-.14-1.443 1.242-2.756 3.089-2.935 1.845-.178 3.454.847 3.593 2.29" fill="#141314"/>
        <path d="M332.482 215.62a33.53 33.53 0 0 1-4.538.133l.057-1.447c17.482.696 30.929-13.427 31.061-13.57l1.057.99c-.126.136-11.763 12.363-27.637 13.894" fill="#141314"/>
        <path d="M302.22 175.627c1.399-9.799 6.532-20.59 14.945-26.13 7.535-4.963 17.614-5.278 25.917-2.094 7.155 2.743 11.89 8.859 14.225 15.987 1.986 6.07 2.255 12.309 2.718 18.616.151 2.08 3.413 2.098 3.26 0-.442-6.002-.687-11.984-2.329-17.821-2.139-7.597-6.522-14.576-13.622-18.392-8.45-4.543-19.647-5.028-28.375-1.022-7.097 3.256-12.286 9.601-15.579 16.538-1.998 4.205-3.643 8.819-4.303 13.45-.294 2.054 2.848 2.94 3.143.868" fill="#20AFC6"/>
        <path d="M371.056 192.478c0 7.67-5 13.885-11.168 13.885-6.168 0-11.168-6.215-11.168-13.885s5-13.887 11.168-13.887c6.168 0 11.168 6.217 11.168 13.887" fill="#20AFC6"/>
        <path d="M372.257 192.478c0 7.285-4.75 13.192-10.61 13.192-5.86 0-10.61-5.907-10.61-13.192 0-7.287 4.75-13.193 10.61-13.193 5.86 0 10.61 5.906 10.61 13.193" fill="#2098AB"/>
        <path d="M441.345 130.632h-54.732A6.632 6.632 0 0 1 379.98 124V91.706a6.63 6.63 0 0 1 6.632-6.631h54.732a6.63 6.63 0 0 1 6.632 6.63V124a6.632 6.632 0 0 1-6.632 6.632" fill="#DEE9EE"/>
        <path d="M439.749 129.101h-54.735a6.63 6.63 0 0 1-6.63-6.63V90.176a6.63 6.63 0 0 1 6.63-6.632h54.735a6.632 6.632 0 0 1 6.632 6.632v32.295c0 3.661-2.97 6.63-6.632 6.63" fill="#FFFFFE"/>
        <path d="M414.142 119.27a1.049 1.049 0 0 1-.767.323h-2.305c-.297 0-.551-.107-.769-.323a1.05 1.05 0 0 1-.323-.769v-2.303c0-.297.109-.552.323-.769.218-.214.472-.323.77-.323h2.304c.295 0 .552.109.767.323.218.217.324.472.324.769v2.303c0 .298-.106.555-.324.77zm2.851-27.387c1.387.661 2.48 1.576 3.275 2.749a6.799 6.799 0 0 1 1.192 3.9c0 1.079-.183 2.029-.546 2.85-.365.823-.81 1.524-1.334 2.103-.525.58-1.219 1.233-2.083 1.96-1.158.997-2.02 1.887-2.587 2.668-.564.783-.847 1.752-.847 2.91v.566c0 .297-.109.555-.324.77a1.05 1.05 0 0 1-.77.322h-1.494c-.298 0-.552-.107-.768-.323a1.047 1.047 0 0 1-.323-.769v-.848c0-1.078.189-2.028.566-2.85.376-.822.828-1.516 1.354-2.083.525-.565 1.233-1.252 2.121-2.061 1.134-.97 1.975-1.824 2.527-2.567.552-.74.83-1.624.83-2.647 0-1.294-.54-2.316-1.619-3.073-1.078-.753-2.372-1.132-3.88-1.132-1.457 0-2.667.365-3.639 1.092-.97.727-1.643 1.845-2.02 3.355a1.07 1.07 0 0 1-.384.648 1.044 1.044 0 0 1-.665.242h-1.74a.918.918 0 0 1-.648-.263.708.708 0 0 1-.242-.627c.082-1.266.48-2.505 1.194-3.718.713-1.214 1.764-2.21 3.151-2.992 1.389-.781 3.053-1.173 4.993-1.173 1.752 0 3.322.33 4.71.99z" fill="#F9CA4C"/>
        <path d="m301.745 98.392-14.563-10.337h-38.44c-3.812 0-6.901-3.09-6.901-6.9V49.398c0-3.81 3.089-6.9 6.9-6.9h54.196c3.812 0 6.901 3.09 6.901 6.9v31.757c0 3.81-3.089 6.9-6.9 6.9h-1.193v10.337" fill="#DEE9EE"/>
        <path d="M301.31 41.018h-54.196a6.899 6.899 0 0 0-6.9 6.9v31.757a6.9 6.9 0 0 0 6.9 6.901h38.44l14.563 10.337V86.576h1.192c3.81 0 6.901-3.09 6.901-6.9V47.918c0-3.812-3.09-6.901-6.9-6.901" fill="#FFFFFE"/>
        <path d="M301.084 52.78H247.339c-.699 0-.7 1.087 0 1.087H301.084c.699 0 .7-1.086 0-1.086M301.084 59.864H247.339c-.699 0-.7 1.086 0 1.086H301.084c.699 0 .7-1.086 0-1.086M285.029 66.946H247.339c-.699 0-.7 1.088 0 1.088h37.69c.699 0 .7-1.088 0-1.088M285.029 74.03H247.339c-.699 0-.7 1.087 0 1.087h37.69c.699 0 .7-1.088 0-1.088" fill="#F9CA4C"/>
        <path d="M234.221 121.246v-17.66a4.484 4.484 0 0 1 4.483-4.484h35.207a4.482 4.482 0 0 1 4.481 4.483v7.318a85.574 85.574 0 0 0-3.945-.092c-15.135 0-28.546 4.065-40.226 10.435" fill="#DEE9EE"/>
        <path d="m273.136 135.414-9.46-6.715h-24.972a4.483 4.483 0 0 1-4.483-4.483v-2.97c11.68-6.37 25.091-10.435 40.226-10.435 1.302 0 2.618.03 3.945.092v13.313a4.482 4.482 0 0 1-4.481 4.483h-.775v6.715" fill="#D2E1EA"/>
        <path d="M272.854 98.141h-35.208a4.484 4.484 0 0 0-4.483 4.483v20.632a4.482 4.482 0 0 0 4.483 4.482h24.971l9.46 6.715v-6.715h.777a4.483 4.483 0 0 0 4.483-4.482v-20.632a4.485 4.485 0 0 0-4.483-4.483" fill="#FFFFFE"/>
        <path d="M272.707 105.783h-34.915c-.454 0-.455.706 0 .706h34.915c.454 0 .454-.706 0-.706M272.707 110.385h-34.915c-.454 0-.455.706 0 .706h34.915c.454 0 .454-.706 0-.706M262.276 114.986h-24.484c-.454 0-.455.706 0 .706H262.276c.454 0 .455-.706 0-.706M262.276 119.588h-24.484c-.454 0-.455.706 0 .706H262.276c.454 0 .455-.706 0-.706" fill="#F9CA4C"/>
        <path d="M177.14 195.595h-27.147a6.632 6.632 0 0 1-6.632-6.632v-32.294a6.632 6.632 0 0 1 6.632-6.633h50.529c-5.547 6.784-10.18 13.705-13.897 20.092-4.687 8.054-7.338 16.694-9.485 25.467" fill="#DEE9EE"/>
        <path d="M204.726 195.595H177.14c2.147-8.773 4.798-17.413 9.485-25.467 3.718-6.387 8.35-13.308 13.897-20.092h4.204a6.632 6.632 0 0 1 6.633 6.633v32.294a6.632 6.632 0 0 1-6.633 6.632" fill="#D2E1EA"/>
        <path d="M202.708 193.786h-54.733a6.632 6.632 0 0 1-6.632-6.632v-32.295c0-3.661 2.97-6.63 6.632-6.63h54.733a6.632 6.632 0 0 1 6.633 6.63v32.295a6.632 6.632 0 0 1-6.633 6.632" fill="#FFFFFE"/>
        <path d="M169.134 158.987c.485 5.158 5.99 4.343 5.99 4.343 3.361.491 2.86 7.85 2.86 7.85s-.358 7.368-3.754 7.465c0 0-5.374-1.45-6.455 3.616-1.082 5.064 1.972 7.657 6.951 7.314 0 0 6.897-.67 7.926-18.282.57-17.85-5.76-18.76-5.76-18.76-4.907-.92-8.24 1.299-7.758 6.454" fill="#F9CA4C"/>
        <path d="M388.504 372.483c16.303-7.978 27.584-23.18 36.288-38.807 15.792-28.35 25.317-61.158 20.03-93.005-1.037-6.246-3.304-13.23-9.24-15.788-2.806-1.207-6.067-1.182-9.007-.332-5.81 1.68-10.304 6.37-13.012 11.655-2.707 5.285-3.866 11.177-4.95 16.987-7.67 41.18-13.088 83.095-27.784 122.419l7.675-3.13" fill="#20AFC6"/>
        <path d="M390.051 368.799h-2.249c11.296-29.498 16.317-60.988 22.926-91.898.963-4.512 1.988-9.086 4.18-13.151 2.188-4.064 5.726-7.627 10.192-8.808.947-.25 1.932-.386 2.912-.386 1.363 0 2.716.264 3.942.847 4.462 2.13 6.022 7.632 6.663 12.532.622 4.778.782 9.47.543 14.086-.511.924-.89 1.936-.839 2.981.03.615.21 1.21.45 1.776-1.412 12.73-5.746 24.895-11.575 36.733-12.228 15.602-24.99 30.978-37.145 45.288" fill="#26A4BF"/>
        <path d="M430.008 242.036c-1.348 9.853-2.755 19.701-4.454 29.505-1.685 9.72-3.66 19.4-6.144 28.958-2.296 8.824-5.038 17.51-8.536 25.955a189.412 189.412 0 0 1-12.159 24.242c-4.53 7.621-9.6 14.951-15.301 21.79-.692.83-1.396 1.653-2.106 2.467-.15.173.104.426.256.252 5.81-6.665 10.993-13.838 15.635-21.318a189.396 189.396 0 0 0 12.646-24.098c3.629-8.314 6.552-16.863 8.95-25.588 2.64-9.607 4.732-19.349 6.503-29.141 1.773-9.806 3.227-19.667 4.593-29.534.162-1.163.32-2.327.48-3.49.031-.226-.332-.223-.363 0" fill="#FFFFFE"/>
        <path d="M394.865 370.712c11.304 2.78 26.925 4.95 38.007 5.594 20.874 1.21 46.452.452 63.027-12.291 5.377-4.135 10.069-10.905 7.871-17.321-1.395-4.075-5.342-6.869-9.506-7.97-4.166-1.098-8.563-.757-12.841-.265-30.892 3.55-60.877 14.723-86.558 32.253" fill="#20AFC6"/>
        <path d="M455.83 372.878h-36.947c-6.603-.75-13.657-1.867-19.315-3.174a149.898 149.898 0 0 1 4.532-2.817c13.084-3.11 26.379-9.2 38.31-16.307a156.676 156.676 0 0 1 24.381-4.683c1.717-.19 3.46-.35 5.188-.35 1.614 0 3.217.14 4.778.527 3.231.8 6.29 2.847 7.366 5.836 1.697 4.707-1.955 9.683-6.133 12.728-6.175 4.495-13.952 6.973-22.16 8.24" fill="#26A4BF"/>
        <path d="M486.647 352.52c-5.802 1.31-11.604 2.623-17.412 3.916a1897.148 1897.148 0 0 1-17.82 3.89 1129.1 1129.1 0 0 1-18.004 3.685 763.368 763.368 0 0 1-17.96 3.3 548.628 548.628 0 0 1-17.802 2.754c-.72.099-1.442.195-2.16.29-.258.036-.247.442.012.408a527.833 527.833 0 0 0 17.724-2.666 730.384 730.384 0 0 0 17.906-3.232c6.015-1.16 12.016-2.38 18.01-3.644a1750.39 1750.39 0 0 0 17.944-3.891c5.855-1.3 11.707-2.62 17.558-3.941l2.126-.48c.254-.058.131-.447-.122-.39" fill="#FFFFFE"/>
        <path d="M389.87 369.012c23.693-1.238 50.125-15.3 69.105-29.534 12.493-9.37 24.834-19.312 34.059-31.91a89.67 89.67 0 0 0 15.43-34.807c1.685-8.213 1.394-18.413-5.69-22.898-3.824-2.42-8.82-2.429-13.085-.914-4.265 1.514-7.911 4.387-11.216 7.48-9.426 8.815-16.65 19.67-23.992 30.282-19.12 27.639-42.851 56.69-64.61 82.301" fill="#20AFC6"/>
        <path d="M396.263 365.67c16.806-18.86 35.137-40.255 49.9-60.61 2.072-2.852 4.129-5.728 6.26-8.545.979.314 2.01.474 3.034.474h.035c2.702-.01 5.33-1.047 7.57-2.56 1.141-.774 2.295-1.867 2.278-3.244-.018-1.414-1.336-2.54-2.719-2.822-.347-.07-.695-.1-1.046-.1-.943 0-1.892.22-2.816.47a73.9 73.9 0 0 1 5.936-5.974c2.553-2.277 5.369-4.391 8.663-5.507a14.299 14.299 0 0 1 4.56-.766c1.96 0 3.895.44 5.547 1.437 5.47 3.302 5.696 10.816 4.394 16.865-1.986 9.226-6.081 18.034-11.918 25.632-7.125 9.279-16.657 16.6-26.304 23.5-14.661 10.482-35.075 20.84-53.374 21.75" fill="#26A4BF"/>
        <path d="M493.562 269.683a183891.1 183891.1 0 0 0-20.826 25.45c-6.16 7.528-12.278 15.097-18.567 22.52-5.792 6.834-11.752 13.533-18.1 19.859-6.28 6.261-12.946 12.164-20.16 17.339-7.158 5.136-14.858 9.548-23.051 12.813-1.007.401-2.021.784-3.042 1.152-.242.087-.137.482.11.392 8.267-2.979 16.076-7.101 23.346-12.024 7.316-4.951 14.087-10.675 20.445-16.796 6.49-6.25 12.562-12.916 18.432-19.745 6.195-7.204 12.173-14.591 18.19-21.942a411144.055 411144.055 0 0 1 23.51-28.73c.165-.2-.12-.49-.287-.288" fill="#FFFFFE"/>
        <path d="M476.767 339.052c.235-.161.47-.326.705-.49l.089.086-.017.166c.043-.02.088-.038.131-.056.015.013.03.027.047.04l.02.12-.975.134" fill="#8ED0DD"/>
        <path d="M466.185 345.223c-.366 0-.489-.599-.078-.725.574-.177 1.144-.37 1.706-.583 3.195-1.2 6.143-2.933 8.954-4.863l.975-.134c.018.1.039.2.06.3-3.556 2.491-7.333 4.702-11.501 5.987a.39.39 0 0 1-.116.018" fill="#20AFC6"/>
        <path d="m478.232 338.55-.02-.114c.138-.23.275-.46.407-.694.634-.461 1.262-.928 1.885-1.397a486.646 486.646 0 0 0 9.875-7.627c.098.082.197.162.297.241l.334-.395c.016.175.04.35.073.522a528.98 528.98 0 0 1-5.503 4.287c-2.076 1.598-4.145 3.211-6.262 4.76l-.254.185c-.282.064-.559.14-.832.231m13.067-10.325.045-.056.05-.258c.748-.597 1.494-1.199 2.236-1.802a310.688 310.688 0 0 0 7.355-6.163c.192.124.397.228.615.301l.127-.373.061.344a314.239 314.239 0 0 1-9.263 7.72c-.415.065-.824.16-1.226.287m10.482-8.508.038-.115c.033-.154.067-.31.098-.465a315.249 315.249 0 0 0 7.637-6.877l.03.022c.101.078.236.155.356.155h.011c.008.025.018.05.03.075-.026.107-.05.215-.075.322l.105-.255c.028.059.058.114.093.17a327.845 327.845 0 0 1-7.455 6.721 8.65 8.65 0 0 0-.868.247" fill="#8ED0DD"/>
        <path d="M511.033 311.876a97.16 97.16 0 0 0-.092-.916 313.09 313.09 0 0 0 6.621-6.425c.034.013.066.025.1.036l.046-.18.105-.105c2.125-2.13 4.22-4.288 6.284-6.478l.086.071c-.057.119-.115.239-.174.356l.302-.09c.077.087.155.173.234.257a314.716 314.716 0 0 1-6.302 6.49c-.085.033-.17.068-.253.106l-.461.114c.074.09.15.178.228.264l-.927.921a312.572 312.572 0 0 1-5.793 5.578l-.004.001" fill="#97D3DD"/>
        <path d="m510.172 312.245-.13-.003.125-.555c.259-.243.517-.484.774-.727.032.305.063.61.092.916-.292.11-.58.233-.86.37" fill="#8ED0DD"/>
        <path d="M524.27 297.948a1.466 1.466 0 0 1-.087-.069c.052-.107.102-.215.152-.324a305.888 305.888 0 0 0 3.166-3.414c-.009.073-.016.147-.023.219l-.147.936.149-.049c-.725.79-1.453 1.575-2.185 2.357a7.95 7.95 0 0 0-.669.256l-.355.088" fill="#97D3DD"/>
        <path d="m527.33 295.296.148-.936c.007-.072.014-.146.023-.219.34-3.06 2.199-5.926 4.885-7.431.63-.354 1.393-.616 2.103-.616.536 0 1.042.15 1.44.521.68.637.755 1.734.403 2.598-.354.862-1.052 1.533-1.77 2.129a21.504 21.504 0 0 1-7.082 3.905l-.15.049M524.009 298.235c.059-.117.117-.237.174-.356.028.024.057.046.088.069l-.105.026.145.171-.302.09m.174-.356a4.709 4.709 0 0 1-.086-.07c-1.056-.903-1.559-2.356-1.82-3.747-.204-1.09-.3-2.227-.016-3.298.283-1.072 1.002-2.075 2.036-2.472.126-.05.26-.09.392-.09.033 0 .067.004.1.01.163.026.305.12.432.226.624.521.944 1.341 1.01 2.152.069.812-.094 1.624-.29 2.414a25.677 25.677 0 0 1-1.758 4.875M517.661 304.571c-.033-.01-.065-.023-.099-.036-.498-.196-.895-.597-1.274-.984-1.093-1.123-2.244-2.36-2.455-3.913-.106-.784.043-1.582.26-2.344.341-1.19.932-2.414 2.03-2.988.27-.142.576-.238.878-.238.104 0 .209.01.31.036.49.12.867.537 1.055 1.004.19.466.221.98.228 1.485.04 2.997-.149 4.935-.886 7.797-.015.06-.03.12-.047.181" fill="#97D3DD"/>
        <path d="M509.906 312.833c.026-.107.05-.215.074-.322l.03.067-.104.255" fill="#8ED0DD"/>
        <path d="M510.69 308.896a61.136 61.136 0 0 0-1.416-7.173c.131.098.254.206.365.323.688.736.983 1.755 1.12 2.754.186 1.363.121 2.732-.068 4.096" fill="#97D3DD"/>
        <path d="M509.94 312.436c-.12 0-.255-.077-.357-.155l-.029-.022c-1.36-1.046-2.55-2.347-3.3-3.89-.757-1.554-1.044-3.364-.618-5.041.193-.76.573-1.532 1.265-1.903a1.86 1.86 0 0 1 .884-.214c.521 0 1.055.195 1.49.512a61.136 61.136 0 0 1 1.416 7.173c-.131.934-.32 1.866-.524 2.79l-.125.556-.148-.001c.014.067.033.132.057.195h-.011M501.6 320.246a2.772 2.772 0 0 1-.615-.3c-.482-.312-.887-.758-1.265-1.201-1.285-1.517-2.46-3.19-2.989-5.107-.527-1.918-.317-4.127.945-5.666.458-.56 1.12-1.037 1.83-1.037.07 0 .143.005.214.015.598.084 1.093.51 1.47.98 1.547 1.93 1.596 4.637 1.35 7.096a40.928 40.928 0 0 1-.721 4.575l-.038.115a1.714 1.714 0 0 0-.078.026l.024.131-.127.373M490.676 328.96c-.1-.08-.2-.16-.297-.242-3.136-2.606-5.082-6.603-5.182-10.682-.01-.37.007-.756.056-1.138a110.805 110.805 0 0 0 2.844-3.153c.7.03 1.402.332 1.938.795.794.686 1.272 1.669 1.588 2.669 1.09 3.44.455 7.15-.228 10.701l-.05.258-.046.056c-.03.008-.059.018-.088.028l-.197-.571c-.029.296-.029.59-.004.883l-.334.395" fill="#8ED0DD"/>
        <path d="M485.253 316.898c.164-1.288.698-2.533 1.86-2.993a2.37 2.37 0 0 1 .984-.16c-.928 1.07-1.876 2.12-2.844 3.153" fill="#20AFC6"/>
        <path d="M523.998 308.295c-.88 0-1.756-.217-2.585-.525-1.377-.513-2.673-1.305-3.656-2.394a6.912 6.912 0 0 1-.228-.264l.46-.114c.084-.038.17-.073.254-.106 1.18-.467 2.439-.63 3.716-.63 1.285 0 2.59.166 3.86.354.636.095 1.37.265 1.638.85.241.525-.023 1.151-.405 1.583-.668.755-1.675 1.159-2.68 1.233a5.57 5.57 0 0 1-.374.013M530.631 301.158c-.88 0-1.754-.216-2.58-.525-1.31-.489-2.542-1.226-3.506-2.231a10.202 10.202 0 0 1-.379-.428l.105-.026.355-.088a7.95 7.95 0 0 1 .669-.256c1.058-.351 2.172-.478 3.302-.478 1.285 0 2.59.164 3.859.352.635.095 1.372.266 1.639.851.241.524-.022 1.15-.405 1.582-.667.757-1.674 1.16-2.681 1.233-.126.01-.252.014-.378.014M517.845 316.618c-1.046 0-2.098-.235-3.074-.626-1.302-.523-2.483-1.31-3.586-2.181a72.944 72.944 0 0 0-.152-1.935l.004-.001c1.251-.471 2.588-.706 3.926-.706 1.725 0 3.449.39 4.988 1.17.667.337 1.352.811 1.54 1.538.163.63-.11 1.318-.577 1.77-.466.455-1.098.701-1.736.836a6.5 6.5 0 0 1-1.333.135" fill="#97D3DD"/>
        <path d="M511.185 313.81a24.955 24.955 0 0 1-.223-.178c-.32-.257-.646-.543-.858-.884a1.684 1.684 0 0 1-.093-.17c-.011-.022-.021-.045-.03-.067a1.309 1.309 0 0 1-.086-.27l.147.001.13.003c.282-.136.569-.259.861-.369.059.64.11 1.287.152 1.935" fill="#8ED0DD"/>
        <path d="M510.954 326.197a75.02 75.02 0 0 0 .369-5.977c1.054.303 2.124.746 2.643 1.69.727 1.32-.072 3.102-1.4 3.817a4.17 4.17 0 0 1-1.612.47" fill="#97D3DD"/>
        <path d="M510.476 326.218c-.777 0-1.57-.163-2.303-.419-2.686-.937-4.87-3.014-6.36-5.437l-.025-.145-.06-.344-.025-.13.078-.027a8.65 8.65 0 0 1 .868-.247c.822-.19 1.662-.273 2.51-.273 1.927 0 3.894.42 5.771.915.131.035.262.07.393.109a75.02 75.02 0 0 1-.37 5.977c-.158.014-.317.021-.477.021M502.156 337.423c-3.627 0-7.161-2.035-9.402-4.935-.777-1.005-1.437-2.172-1.671-3.402a4.797 4.797 0 0 1-.068-1.405l.196.57a8.477 8.477 0 0 1 1.315-.315 9.551 9.551 0 0 1 1.479-.112c1.428 0 2.871.298 4.22.781 2.247.803 4.283 2.087 6.301 3.361.978.617 2.06 1.401 2.154 2.554.06.788-.397 1.556-1.034 2.027-.636.47-1.427.682-2.211.79a9.39 9.39 0 0 1-1.279.086M477.722 338.797l-.047-.039c.013-.005.025-.01.038-.017.002.02.005.038.01.056" fill="#8ED0DD"/>
        <path d="M473.671 327.855c.02-.2.047-.399.08-.596.126-.796.334-1.596.768-2.275.667-1.047 1.8-1.7 2.943-2.186.227-.096.47-.19.712-.19.047 0 .093.005.139.011.288.048.522.239.72.461a166.546 166.546 0 0 1-5.362 4.775" fill="#20AFC6"/>
        <path d="M477.713 338.741a7.387 7.387 0 0 1-.081-.806l-.071.713-.09-.086c-2.788-2.752-4.223-6.815-3.8-10.707a166.546 166.546 0 0 0 5.362-4.775c.061.069.118.141.173.212 1.626 2.142 2.158 4.985 1.835 7.654-.29 2.403-1.223 4.684-2.422 6.796-.132.233-.269.465-.408.694l.021.113a8.596 8.596 0 0 0-.52.192" fill="#8ED0DD"/>
        <path d="M477.742 338.918a3.65 3.65 0 0 1-.03-.177 8.596 8.596 0 0 1 1.352-.423c.752-.17 1.526-.246 2.303-.246.61 0 1.222.047 1.823.13l.263.04c-.678.065-1.356.139-2.03.217-1.227.14-2.456.294-3.681.46" fill="#8ED0DD"/>
        <path d="M489.47 346.996c-.08 0-.159-.001-.238-.003-2.702-.062-5.444-.738-7.655-2.295-1.855-1.306-3.29-3.283-3.775-5.48-.021-.1-.042-.2-.06-.3 1.225-.165 2.454-.319 3.68-.46a97.258 97.258 0 0 1 2.031-.215c1.805.284 3.549.881 5.268 1.505 1.327.482 2.699 1.014 3.664 2.046.964 1.032 1.387 2.712.583 3.873-.74 1.07-2.18 1.33-3.498 1.33" fill="#20AFC6"/>
        <path d="m477.544 338.814.017-.166.07-.713c.013.272.04.54.082.806l-.038.017c-.043.018-.088.036-.13.056M448.065 295.806c.18-.48.356-.963.527-1.445l.119.019.083.147c.026-.042.05-.083.077-.124a.697.697 0 0 0 .059.006l.079.08-.944 1.317" fill="#8ED0DD"/>
        <path d="M443.066 306.386c-.263 0-.516-.326-.305-.603.367-.478.719-.964 1.056-1.464 1.783-2.64 3.122-5.536 4.248-8.513l.944-1.318c.075.075.153.148.232.22-1.458 4.09-3.257 8.078-5.913 11.539a.324.324 0 0 1-.262.14" fill="#20AFC6"/>
        <path d="m449.204 293.912-.08-.08c-.022-.267-.044-.536-.072-.803.25-.743.492-1.485.727-2.229a491.237 491.237 0 0 0 3.636-11.937c.127.01.254.018.382.025l.043-.515c.114.134.234.26.36.383a517.32 517.32 0 0 1-2.003 6.681c-.766 2.505-1.52 5.02-2.348 7.507l-.1.296a8.383 8.383 0 0 0-.545.672m4.674-15.983.005-.074-.108-.24a312.12 312.12 0 0 0 3.207-12.046c.23-.009.456-.044.677-.11l-.113-.378.25.245a311.999 311.999 0 0 1-3.084 11.659c-.3.292-.58.607-.834.944m3.62-13.007-.034-.117c-.063-.144-.125-.29-.19-.434a327.606 327.606 0 0 0 2.246-10.029l.036.001h.042c.122 0 .26-.02.348-.086.022.015.044.03.067.043.041.102.085.204.126.305l-.062-.267c.055.03.114.058.174.083a310.743 310.743 0 0 1-2.187 9.797c-.199.224-.388.46-.565.704" fill="#8ED0DD"/>
        <path d="M460.963 250.873c-.22-.144-.442-.29-.663-.433.452-2.34.878-4.684 1.277-7.032a1.22 1.22 0 0 0 .101-.03l-.066-.175.025-.143c.5-2.967.958-5.94 1.373-8.92l.111.008c.023.13.043.26.064.391l.194-.25c.113.029.227.052.341.075a312.546 312.546 0 0 1-1.381 8.938 9.67 9.67 0 0 0-.148.235l-.308.36c.113.03.226.058.34.083l-.223 1.288c-.329 1.872-.675 3.74-1.037 5.605" fill="#97D3DD"/>
        <path d="M459.908 254.045c-.074-.174-.146-.35-.22-.525.21-1.026.412-2.053.612-3.08.221.143.442.29.663.433-.15.766-.301 1.532-.456 2.296-.175.26-.34.528-.49.803l-.109.073" fill="#8ED0DD"/>
        <path d="M463.233 234.153a2.984 2.984 0 0 1-.112-.005 31.43 31.43 0 0 0-.064-.354c.213-1.536.414-3.075.603-4.615l.109.19.422.848.096-.128a307.41 307.41 0 0 1-.418 3.191c-.14.19-.273.39-.397.595l-.24.278" fill="#97D3DD"/>
        <path d="m464.19 230.217-.421-.848a23.33 23.33 0 0 1-.109-.19c-1.491-2.691-1.638-6.105-.319-8.887.507-1.067 1.443-2.147 2.587-2.147.082 0 .164.006.247.017.924.126 1.622.976 1.832 1.886.212.908.032 1.86-.208 2.76a21.567 21.567 0 0 1-3.512 7.281c-.032.044-.064.087-.096.128M463.185 234.539c-.02-.13-.041-.26-.064-.391l.112.005-.071.081c.072.02.144.039.217.056l-.194.249m-.064-.391-.111-.009c-1.385-.125-2.635-1.018-3.652-2.001-.798-.77-1.535-1.642-1.925-2.68-.388-1.037-.384-2.271.229-3.194.095-.141.205-.278.356-.35a.795.795 0 0 1 .355-.071c.044 0 .085.001.127.006.812.064 1.546.545 2.071 1.168.524.624.864 1.38 1.16 2.138a25.68 25.68 0 0 1 1.39 4.993M461.027 243.47c-.353 0-.71-.064-1.059-.128-1.543-.282-3.195-.624-4.267-1.767-.542-.578-.883-1.315-1.145-2.061-.41-1.17-.64-2.511-.077-3.614.188-.365.473-.702.854-.853.153-.06.316-.087.48-.087.335 0 .675.114.962.295.423.27.748.673 1.046 1.08 1.767 2.421 2.735 4.11 3.79 6.868l.067.176a1.22 1.22 0 0 1-.101.029c-.18.044-.364.061-.55.061" fill="#97D3DD"/>
        <path d="M460.14 254.605c-.042-.101-.086-.203-.127-.305l.064.038.062.267" fill="#8ED0DD"/>
        <path d="M456.605 248.039c-1.096-.708-2.195-1.415-3.293-2.12.123.007.244.022.364.047.986.2 1.817.862 2.507 1.596.145.156.285.315.422.477" fill="#97D3DD"/>
        <path d="M459.598 254.343h-.042l-.036-.001c-1.715-.065-3.438-.437-4.944-1.262-1.516-.827-2.798-2.139-3.422-3.75-.283-.732-.42-1.583-.07-2.286.37-.742 1.223-1.13 2.064-1.13.054 0 .109 0 .164.005 1.098.705 2.197 1.412 3.293 2.12 1.35 1.604 2.26 3.533 3.083 5.481.074.176.146.351.22.525l-.122.084c.05.047.104.089.16.128-.088.065-.226.086-.348.086M456.837 265.573c-.528 0-1.064-.119-1.579-.25-1.928-.491-3.855-1.175-5.395-2.434-1.542-1.258-2.648-3.18-2.51-5.164.054-.795.368-1.65 1.075-2.018.266-.138.559-.192.858-.192.305 0 .616.057.908.14 2.377.679 3.985 2.858 5.209 5.004a41.127 41.127 0 0 1 1.872 3.712l.189.434.035.117a1.93 1.93 0 0 0-.047.066l.094.093.113.378a2.73 2.73 0 0 1-.677.111c-.047.003-.096.003-.145.003M453.797 278.888a16.979 16.979 0 0 1-.382-.025c-3.027-.23-5.965-1.472-8.275-3.44.348-2.557.62-5.12.812-7.686.65.233 1.259.603 1.813 1.022 2.879 2.174 4.511 5.567 6.01 8.857l.108.24-.005.073-.056.074-.489-.353c.147.26.318.499.507.723l-.043.515" fill="#8ED0DD"/>
        <path d="M445.14 275.423a13.96 13.96 0 0 1-2.135-2.268c-.97-1.296-1.713-3.12-.83-4.478.515-.788 1.483-1.188 2.432-1.188.107 0 .214.004.32.015.35.034.693.115 1.025.233-.192 2.567-.464 5.13-.812 7.686" fill="#20AFC6"/>
        <path d="M463.99 244.17a8.109 8.109 0 0 1-2.107-.273l.308-.36a9.67 9.67 0 0 1 .148-.235c1.388-2.13 3.736-3.451 6.015-4.609.394-.2.846-.398 1.273-.398.193 0 .381.042.555.142.502.287.648.951.587 1.525-.108 1.003-.695 1.915-1.473 2.557-.777.642-1.732 1.038-2.708 1.297-.846.224-1.723.354-2.598.354M465.272 234.507a8.267 8.267 0 0 1-1.893-.217 6.214 6.214 0 0 1-.217-.056l.07-.08.24-.28c.124-.204.256-.403.397-.594 1.41-1.922 3.618-3.157 5.766-4.25.393-.2.845-.396 1.271-.396.194 0 .382.04.558.14.5.288.646.953.584 1.527-.105 1.003-.693 1.915-1.47 2.557-.779.642-1.734 1.036-2.71 1.295a10.1 10.1 0 0 1-2.596.354M466.138 254.313a456.143 456.143 0 0 0-4.235-2.822c1.66-1.636 3.83-2.757 6.139-3.104a5.28 5.28 0 0 1 .759-.063c.508 0 1.007.103 1.388.425.499.42.674 1.138.556 1.777-.118.64-.492 1.209-.933 1.687-.97 1.05-2.29 1.733-3.674 2.1" fill="#97D3DD"/>
        <path d="M462.862 254.693c-.468 0-.934-.018-1.4-.047-.409-.025-.84-.069-1.211-.225a1.821 1.821 0 0 1-.174-.083l-.064-.038a1.403 1.403 0 0 1-.227-.171l.122-.084.109-.073a10.874 10.874 0 0 1 1.886-2.48c1.419.934 2.831 1.874 4.235 2.82-.068.019-.135.036-.204.052-1.004.243-2.037.329-3.072.329M463.284 266.587c-1.837 0-3.686-.435-5.384-1.16l-.104-.1-.25-.246-.094-.093a8.941 8.941 0 0 1 .613-.77c1.83-2.069 4.506-3.289 7.124-4.272.744-.278 1.557-.544 2.336-.544.408 0 .805.072 1.18.253 1.357.656 1.736 2.572 1.07 3.923-.67 1.353-2.093 2.184-3.541 2.603-.961.278-1.953.406-2.95.406M458.548 280.827c-.343-.075-.68-.164-1.014-.265-1.216-.369-2.43-.938-3.333-1.806a5.507 5.507 0 0 1-.36-.383 4.705 4.705 0 0 1-.508-.723l.49.353c.017-.025.037-.05.055-.074.255-.337.535-.652.834-.944 1.372-1.342 3.175-2.234 5.035-2.758 1.302-.365 2.637-.567 3.983-.695a341.39 341.39 0 0 0-5.182 7.295" fill="#8ED0DD"/>
        <path d="M461.412 281.136c-.962 0-1.927-.104-2.864-.309a341.39 341.39 0 0 1 5.182-7.295 74.501 74.501 0 0 1 3.099-.212c.234-.012.475-.022.717-.022.955 0 1.925.15 2.518.858.508.609.58 1.497.333 2.25-.248.751-.769 1.385-1.347 1.925-2.036 1.91-4.827 2.805-7.638 2.805" fill="#20AFC6"/>
        <path d="m448.71 294.38-.118-.019c-2.423-.392-4.711-1.513-6.55-3.137a145.3 145.3 0 0 0 1.96-8.816c1.27.979 2.323 2.266 3.09 3.68 1.154 2.126 1.716 4.526 1.96 6.94.028.268.05.537.071.804l.08.08a8.554 8.554 0 0 0-.311.458 7.45 7.45 0 0 1-.533-.612l.352.622" fill="#8ED0DD"/>
        <path d="M442.041 291.224a12.87 12.87 0 0 1-3.028-3.922 10.47 10.47 0 0 1-.242-.524c.176-1.576.307-3.163.389-4.757.094-.172.193-.34.295-.506.155-.25.327-.508.592-.638a.983.983 0 0 1 .44-.094c.226 0 .46.058.677.126a9.152 9.152 0 0 1 2.838 1.499 145.3 145.3 0 0 1-1.96 8.816" fill="#20AFC6"/>
        <path d="M438.771 286.778c-.24-.567-.42-1.161-.45-1.776-.051-1.045.328-2.057.839-2.981a80.407 80.407 0 0 1-.389 4.757" fill="#26A8C2"/>
        <path d="m449.009 294.488-.08-.08c-.012-.012-.025-.024-.037-.038a8.554 8.554 0 0 1 .858-1.13c.175-.196.36-.385.551-.567-.429.605-.859 1.21-1.292 1.815" fill="#8ED0DD"/>
        <path d="M452.424 296.515c-1.178-.38-2.276-.986-3.183-1.807a6.983 6.983 0 0 1-.232-.22c.433-.606.863-1.21 1.292-1.815.81-.766 1.754-1.4 2.745-1.914 1.702-.882 3.555-1.43 5.404-1.943l.31-.084c-2.23 2.496-4.315 5.113-6.336 7.783" fill="#20AFC6"/>
        <path d="M455.457 296.99a9.938 9.938 0 0 1-3.033-.475c2.02-2.67 4.107-5.287 6.335-7.783.924-.25 1.873-.47 2.816-.47.351 0 .7.031 1.046.101 1.383.283 2.7 1.408 2.719 2.822.017 1.377-1.137 2.47-2.279 3.243-2.24 1.514-4.867 2.55-7.569 2.561h-.035" fill="#26A8C2"/>
        <path d="m448.794 294.527-.435-.769c.167.215.345.418.533.612l-.021.033-.077.124M272.093 275.767h-.718a341.059 341.059 0 0 0-2.734-4.175 333.18 333.18 0 0 0-2.7-3.984l.027-.027c.095-.092.192-.217.206-.34.027-.005.053-.01.08-.018l.306.12-.235-.14c.06-.02.12-.043.18-.069a315.254 315.254 0 0 1 5.562 8.358c.007.092.016.183.026.275m-6.097-8.644c-.177-.07-.354-.138-.532-.206a315.798 315.798 0 0 0-5.994-8.36c.016-.03.033-.06.048-.091l-.17-.073-.09-.12a310.475 310.475 0 0 0-5.491-7.162l.083-.074c.11.074.219.148.327.224l-.046-.313c.098-.061.194-.127.289-.194 1.867 2.367 3.7 4.76 5.5 7.18.02.09.043.18.068.27l.046.47c.1-.06.199-.122.296-.187.26.35.517.702.775 1.053a313.411 313.411 0 0 1 4.674 6.545c.065.305.146.609.24.908l-.023.13m-12.146-16.086a36.98 36.98 0 0 0-.298-.2 332.057 332.057 0 0 0-2.916-3.627c.07.02.142.036.213.054l.905.283-.026-.155c.675.832 1.346 1.667 2.012 2.506.042.232.093.465.156.696l.035.365-.08.078" fill="#8ED0DD"/>
        <path d="m251.754 247.547-.905-.283-.213-.054c-2.977-.784-5.542-3.039-6.64-5.918-.45-1.182-.568-2.73.423-3.518.353-.281.794-.406 1.245-.406.479 0 .97.142 1.384.385.802.477 1.364 1.266 1.85 2.062a21.532 21.532 0 0 1 2.83 7.577l.026.155M249.267 252.375c-.938 0-1.88-.108-2.736-.474-1.02-.438-1.908-1.294-2.15-2.375-.038-.166-.058-.341-.007-.501.05-.155.164-.283.287-.392.546-.487 1.292-.695 2.026-.695.084 0 .168.003.251.009.813.051 1.592.33 2.345.64a25.803 25.803 0 0 1 4.567 2.45l-.083.074c-1.048.913-2.557 1.199-3.971 1.255-.176.005-.352.01-.53.01m4.911-1.115c-.108-.076-.217-.15-.327-.224.028-.026.054-.051.08-.078l.012.107.19-.118.045.313M254.123 261.534h-.043c-.791-.01-1.56-.273-2.28-.6-1.13-.511-2.253-1.275-2.661-2.445-.136-.388-.181-.825-.027-1.206.19-.466.657-.777 1.146-.897.225-.054.453-.075.681-.075.275 0 .55.03.822.066 2.973.398 4.862.869 7.586 2.016l.171.073-.048.09c-.27.467-.723.801-1.16 1.12-1.26.91-2.637 1.858-4.187 1.858M259.167 270.688c-.902 0-1.8-.16-2.633-.507-.723-.302-1.432-.79-1.698-1.529-.34-.948.187-2.046 1.014-2.618.804-.557 1.818-.708 2.797-.708h.09c2.318.025 4.55.76 6.727 1.59.178.069.355.137.532.207l-.024.146c.068-.004.135-.014.202-.028-.014.123-.111.248-.206.34l-.026.027c-1.234 1.193-2.695 2.18-4.33 2.696a8.084 8.084 0 0 1-2.445.384m7.393-3.345-.306-.12.07-.02.236.14M270.476 275.767h-10.728c.204-.202.444-.373.691-.518 1.053-.615 2.24-.842 3.462-.842 1.252 0 2.54.24 3.755.544.948.238 1.89.511 2.82.816M260.034 258.675l-.046-.471a5.894 5.894 0 0 1-.068-.27c-.577-2.476.093-5.085.834-7.532.185-.616.462-1.318 1.08-1.499a1.03 1.03 0 0 1 .28-.039c.463 0 .917.305 1.226.672.65.771.902 1.827.829 2.834-.076 1.004-.453 1.968-.939 2.85-.709 1.289-1.68 2.453-2.9 3.267a6.636 6.636 0 0 1-.296.188" fill="#8ED0DD"/>
        <path d="m253.942 251.066-.011-.107-.035-.365a8.208 8.208 0 0 1-.156-.696c-.412-2.348.224-4.798.92-7.103.187-.617.464-1.319 1.081-1.5a1.03 1.03 0 0 1 .282-.039c.462 0 .916.306 1.225.673.65.77.903 1.826.829 2.831-.075 1.006-.453 1.97-.937 2.854-.676 1.223-1.585 2.335-2.72 3.14a6.507 6.507 0 0 1-.478.312M265.972 267.27l.024-.147.022-.13c-.093-.3-.174-.603-.24-.908-.648-2.99-.01-6.249 1.76-8.751.43-.61 1-1.22 1.746-1.301.052-.006.105-.009.156-.009.592 0 1.162.354 1.511.839.38.528.534 1.19.573 1.84.091 1.497-.375 2.992-1.129 4.288-.754 1.295-1.788 2.41-2.89 3.426-.302.277-.632.557-1 .717a1.643 1.643 0 0 1-.18.068l-.071.021a1.408 1.408 0 0 1-.281.046M273.67 275.767h-1.577a9.228 9.228 0 0 1-.026-.275c-.227-2.754.742-5.53 1.844-8.1.476-1.113 1.086-2.318 2.221-2.741.253-.095.514-.14.774-.14.63 0 1.258.258 1.773.672-1.986 3.469-3.771 7.142-5.01 10.584" fill="#8ED0DD"/>
        <path d="M345.825 237.214c14.626.622 30.454 5.035 41.16 15.02.905.842 1.798 1.77 2.193 2.944.578 1.717-.015 3.579-.564 5.303-6.326 19.923-6.665 41.705-.964 61.817 1.492 5.264 3.397 10.466 3.911 15.913.514 5.448-.57 11.346-4.334 15.317-1.62 1.71-3.65 2.977-5.752 4.04-11.708 5.918-25.457 5.698-38.565 5.153-8.082-.336-16.244-.759-24.025-2.97-7.78-2.21-15.253-6.39-19.98-12.953-4.88-6.771-6.406-15.371-7.026-23.692-1.408-18.904 1.156-37.854 1.513-56.805.103-5.512-.013-11.192-2.163-16.267 9.987-6.906 21.925-11.102 33.833-13.471 2.557 3.403 6.145 4.955 10.398 5.172 4.253.217 7.473-1.394 10.365-4.52" fill="#F9CA4C"/>
        <path d="M385.365 335.834c-.474-5.449 3.397-11.75 2.017-17.017-3.502-13.38-10.106-26.391-8.687-40.211-3.002 1.507-5.724 3.494-7.272 6.462-1.272 2.44-1.6 5.278-1.63 8.043-.061 5.522.968 10.998 1.187 16.516.218 5.518-.475 11.335-3.581 15.853-3.586 5.214-9.771 7.847-15.803 9.462-4.06 1.086-8.199 1.833-12.344 2.486-4.765.752-9.614 1.383-14.397.769-4.784-.617-9.56-2.609-12.705-6.347-4.983-5.926-4.835-14.531-5.73-22.293a69.716 69.716 0 0 0-7.54-24.418c-1.193-2.267-2.595-4.551-4.751-5.881l-.019-.009c-.74 13.84-8.75 28.37-7.801 42.177.572 8.321 8.987 16.224 13.493 22.994 4.365 6.563 11.266 10.743 18.451 12.953 7.185 2.212 14.722 2.634 22.185 2.97 12.105.545 24.8.765 35.614-5.152 1.94-1.063 3.816-2.332 5.312-4.042 3.474-3.97 4.476-9.869 4-15.315" fill="#EF9F50"/>
        <path d="M297.318 246.277c4.52 20.083.628 43.78-4.39 63.745-1.49 5.932-1.177 12.432.95 15.451 2.2 3.123 5.997 4.987 9.468 6.585 8.063 3.716 13.665 8.101 19.82 14.5 2.466 2.563 4.729 5.453 5.794 8.849 1.066 3.394.755 7.384-1.512 10.125-2.169 2.62-5.754 3.706-9.155 3.701-3.4-.004-6.72-.945-10.031-1.72a105.297 105.297 0 0 0-16.88-2.531c-4.917-.333-9.92-.33-14.651-1.716-6.731-1.972-12.512-6.762-16.057-12.816-3.543-6.051-4.895-13.288-4.185-20.264.38-3.74 1.328-7.398 2.302-11.029 4.04-15.038 9.61-28.205 14.713-42.917 2.088-6.021 5.926-12.818 9.603-18.02 3.68-5.204 7.931-10.87 14.21-11.943" fill="#F9CA4C"/>
        <path d="M298.965 284.522c2.725-12.41 1.758-26.138-1.155-38.38-.152-.638-1.133-.368-.982.27 2.076 8.727 2.878 17.718 2.442 26.679-.18 3.718-.486 7.513-1.285 11.16-.14.639.84.91.98.271" fill="#FFFFFE"/>
        <path d="M335.977 355.543s-13.446-3.338-18.476-.457c-5.032 2.882-12.67 7.086-12.441 12.44l-.004 2.195s36.043 1.051 38.97-2.195" fill="#DE9B78"/>
        <path d="M376.142 244.766c6.598.762 13.81 8.45 18.374 15.094 4.566 6.646 7.669 14.162 10.74 21.616l17.247 41.864c1.781 4.324 3.576 8.687 4.443 13.285.717 3.816.782 7.753.189 11.591-.486 3.143-1.451 6.294-3.418 8.795-2.778 3.536-7.167 5.335-11.371 6.934-8.872 3.372-17.973 6.534-27.442 7.187-3.733.257-7.478.12-11.216-.016-10.324-.376-20.692-.759-30.85-2.64-.732-.135-1.491-.291-2.079-.747-.608-.472-.95-1.2-1.27-1.9l-3.064-6.698c-.572-1.248-1.156-2.564-1.044-3.93.146-1.835 1.495-3.325 2.845-4.574a45.178 45.178 0 0 1 12.154-8.033c9.156-4.107 19.61-5.135 28.21-10.305 1.043-.625 2.058-1.316 2.892-2.2 3.168-3.367 2.982-8.786 1.203-13.054-1.778-4.268-3.023-8.343-4.768-12.622-3.886-9.522-5.826-15.737-6.038-23.876-.303-11.586.564-24.787 4.263-35.771" fill="#F9CA4C"/>
        <path d="M341.263 348.314c1.208 1.635 2.137 3.523 2.96 5.371 2.138 4.793 3.35 9.979 3.718 15.207.045.648 1.064.653 1.019 0-.372-5.271-1.573-10.45-3.673-15.303-.864-1.991-1.847-4.033-3.145-5.788-.384-.52-1.269-.014-.879.513" fill="#EF9F50"/>
        <path d="M371.932 285.068c-.845-13.275.176-27.612 4.702-40.167.221-.617-.76-.883-.982-.27-4.551 12.627-5.587 27.088-4.738 40.437.04.652 1.06.656 1.018 0" fill="#FFFFFE"/>
        <path d="M397.78 372.878H235.232a.699.699 0 0 1-.697-.698v-2.683c0-.385.313-.698.697-.698H397.78c.385 0 .697.313.697.698v2.683a.698.698 0 0 1-.697.698" fill="#28405C"/>
        <path fill="#28405C" d="M306.476 372.878h-139.87l-6.755-97.11h137.066l9.56 97.11"/>
        <path fill="#C5DFEB" d="M301.72 372.878H161.85l-6.757-97.11h137.068l9.56 97.11"/>
        <path d="M228.407 332.675a8.351 8.351 0 0 1-8.352-8.352 8.352 8.352 0 1 1 8.352 8.352" fill="#96AFC5"/>
        <path d="M301.72 372.795h-.008l-1.868-18.968c.004.002.004.002.009.002l1.867 18.966" fill="#28405C"/>
        <path d="M301.712 372.795H161.85l-5.584-80.241c19.257 15.846 69.966 51.754 143.577 61.273l1.868 18.968" fill="#B8D2E3"/>
    </g>
</svg>
